<svg width="240" height="12" viewBox="0 0 240 12" fill="none" xmlns="http://www.w3.org/2000/svg">
<path d="M233.85 7.16125C233.596 6.97372 233.311 6.78082 232.996 6.58257C232.694 6.38431 232.367 6.17802 232.016 5.96369C231.544 5.66899 231.065 5.36625 230.581 5.05547C230.109 4.73934 229.679 4.41785 229.292 4.091C228.916 3.75879 228.608 3.42658 228.366 3.09437C228.136 2.7568 228.021 2.42191 228.021 2.0897C228.021 1.72534 228.172 1.41189 228.475 1.14934C228.789 0.881426 229.213 0.664419 229.746 0.498314C230.278 0.326851 230.896 0.200933 231.598 0.12056C232.3 0.0401866 233.051 0 233.85 0C234.625 0 235.363 0.0401866 236.065 0.12056C236.768 0.200933 237.385 0.326851 237.918 0.498314C238.451 0.664419 238.868 0.881426 239.171 1.14934C239.486 1.41189 239.643 1.72534 239.643 2.0897C239.643 2.42727 239.522 2.76484 239.28 3.10241C239.038 3.43462 238.723 3.76682 238.336 4.09903C237.96 4.42588 237.536 4.74738 237.064 5.06351C236.592 5.37429 236.12 5.67703 235.648 5.97173C235.309 6.18606 234.982 6.39235 234.667 6.5906C234.364 6.78886 234.092 6.97907 233.85 7.16125ZM229.128 9.83768C229.128 9.53762 229.255 9.25631 229.51 8.99376C229.764 8.72585 230.115 8.49545 230.563 8.30255C231.011 8.1043 231.531 7.94891 232.125 7.83639C232.718 7.72387 233.354 7.6676 234.032 7.6676C234.697 7.6676 235.327 7.72387 235.92 7.83639C236.513 7.94891 237.034 8.1043 237.482 8.30255C237.93 8.49545 238.281 8.72585 238.535 8.99376C238.79 9.25631 238.917 9.53762 238.917 9.83768C238.917 10.1377 238.79 10.419 238.535 10.6816C238.281 10.9388 237.93 11.1665 237.482 11.3648C237.034 11.563 236.513 11.7184 235.92 11.8309C235.327 11.9435 234.697 11.9997 234.032 11.9997C233.354 11.9997 232.718 11.9435 232.125 11.8309C231.531 11.7184 231.011 11.563 230.563 11.3648C230.115 11.1665 229.764 10.9388 229.51 10.6816C229.255 10.419 229.128 10.1377 229.128 9.83768Z" fill="white"/>
<path d="M193.714 11.0596H196.892V0.932575H193.714V0.305664H221.844V4.21984H220.609L215.561 0.932575H209.422V5.71478H212.165L214.562 3.06247H215.742V9.01008H214.562L212.165 6.34169H209.422V11.0596H216.196L221.463 7.40262H222.716V11.6945H193.714V11.0596Z" fill="white"/>
<path d="M161.465 9.59765C161.465 9.40155 161.603 9.21803 161.878 9.04708C162.139 8.8711 162.506 8.72026 162.981 8.59456C163.471 8.46383 164.046 8.36076 164.704 8.28534C165.378 8.20992 166.106 8.17221 166.887 8.17221C167.684 8.17221 168.411 8.20992 169.07 8.28534C169.744 8.36076 170.318 8.46383 170.793 8.59456C171.268 8.72026 171.635 8.8711 171.896 9.04708C172.156 9.21803 172.286 9.40155 172.286 9.59765C172.286 9.90938 171.972 10.1859 171.344 10.4273C170.716 10.6686 169.866 10.8396 168.794 10.9401C169.085 10.9803 169.407 11.0105 169.759 11.0306C170.127 11.0507 170.471 11.0608 170.793 11.0608C171.421 11.0608 171.949 11.0231 172.378 10.9477C172.822 10.8672 173.182 10.7616 173.458 10.6309C173.734 10.5002 173.933 10.3493 174.055 10.1784C174.178 10.0024 174.239 9.81637 174.239 9.62027C174.239 9.38396 174.071 9.13256 173.734 8.86607C173.412 8.59959 173.052 8.33059 172.654 8.05908C172.21 7.76745 171.804 7.48337 171.436 7.20683C171.084 6.92526 170.908 6.66632 170.908 6.43V1.30898H166.887V0.720703H190.782V1.30898H186.761V8.26271C186.761 8.93646 186.508 9.49457 186.003 9.93704C185.513 10.3745 184.77 10.7239 183.774 10.9854C182.794 11.2468 181.561 11.4304 180.075 11.5359C178.605 11.6415 176.881 11.6943 174.906 11.6943C173.098 11.6943 171.383 11.6466 169.759 11.551C168.135 11.4555 166.703 11.3172 165.463 11.1362C164.237 10.9552 163.265 10.7365 162.545 10.4801C161.825 10.2186 161.465 9.92447 161.465 9.59765Z" fill="white"/>
<path d="M134.101 11.0825C135.095 11.0825 135.856 11.0541 136.384 10.9973C136.924 10.9406 137.267 10.8373 137.415 10.6876L146.896 0.720703H154.977L166.078 11.0825H169.281L174.167 11.6943H148.405V11.0825H151.958L149.418 8.41076H141.318L139.164 10.6643C139.151 10.6798 139.145 10.7005 139.145 10.7263C139.145 10.7986 139.225 10.8579 139.385 10.9044C139.556 10.9457 139.79 10.9819 140.084 11.0128C140.391 11.0386 140.747 11.0567 141.152 11.067C141.569 11.0774 142.023 11.0825 142.514 11.0825V11.6943H134.101V11.0825ZM148.847 7.79896L145.294 4.14367L141.888 7.79896H148.847Z" fill="white"/>
<path d="M113.01 11.0596H116.188V0.932575H113.01V0.305664H131.879V0.932575H128.719V11.0596H131.879V11.6945H113.01V11.0596Z" fill="white"/>
<path d="M81.1031 0.932575H78.4336V0.305664H97.8287V0.932575H94.6325L100.771 7.95719L106.273 1.43089C106.31 1.38267 106.328 1.3398 106.328 1.30229C106.328 1.23264 106.243 1.17637 106.073 1.13351C105.916 1.08528 105.686 1.04778 105.383 1.02099C105.093 0.988836 104.742 0.967403 104.33 0.956687C103.931 0.940612 103.489 0.932575 103.004 0.932575V0.305664H111.467V0.932575C110.402 0.932575 109.615 0.970083 109.106 1.0451C108.61 1.12011 108.283 1.24871 108.126 1.43089L99.5358 11.6945H91.745L81.1031 0.932575Z" fill="white"/>
<path d="M35.0316 0.932575H31.8535V0.305664H50.722V0.932575H47.5621V7.13739C47.5621 7.64106 47.6227 8.12062 47.7437 8.57607C47.8648 9.03152 48.113 9.43338 48.4883 9.78167C48.8757 10.1246 49.4205 10.3979 50.1227 10.6015C50.837 10.8051 51.7814 10.9069 52.9557 10.9069C53.4037 10.9069 53.8637 10.8881 54.3359 10.8506C54.8081 10.8078 55.2621 10.7301 55.6979 10.6175C56.1459 10.505 56.5635 10.3496 56.951 10.1514C57.3505 9.95313 57.6955 9.69861 57.9861 9.38784C58.2888 9.0717 58.5249 8.69395 58.6943 8.25457C58.8638 7.80984 58.9486 7.28474 58.9486 6.67926V1.40678C58.9486 1.25139 58.6762 1.13351 58.1314 1.05313C57.5987 0.972762 56.8057 0.932575 55.7524 0.932575V0.305664H63.6521V0.932575C62.6109 0.932575 61.824 0.972762 61.2913 1.05313C60.7586 1.13351 60.4922 1.25139 60.4922 1.40678V6.45421C60.4922 7.42941 60.2864 8.26797 59.8748 8.9699C59.4752 9.66646 58.7912 10.2398 57.8227 10.6899C56.8662 11.14 55.5889 11.4722 53.9908 11.6865C52.4049 11.8955 50.4254 12 48.0524 12C46.4059 12 44.941 11.9357 43.6577 11.8071C42.3743 11.6785 41.2484 11.499 40.2799 11.2686C39.3113 11.0328 38.4941 10.7542 37.8282 10.4327C37.1624 10.1058 36.6236 9.74952 36.212 9.36372C35.8003 8.97258 35.4977 8.55731 35.304 8.11794C35.1224 7.67857 35.0316 7.2258 35.0316 6.75963V0.932575Z" fill="white"/>
<path d="M5.15751 11.0596H8.31739V0.932575H5.70231L1.25306 4.90301H0V0.305664H29.1835V4.90301H27.9123L23.4812 0.932575H20.848V11.0596H24.026V11.6945H5.15751V11.0596Z" fill="white"/>
</svg>
